<svg width="21" height="18" viewBox="0 0 21 18" fill="none" xmlns="http://www.w3.org/2000/svg">
<path d="M20.7824 15.4286V17.1429C20.7824 17.375 20.6975 17.5759 20.5279 17.7455C20.3583 17.9152 20.1574 18 19.9252 18H1.06808C0.835938 18 0.635045 17.9152 0.465402 17.7455C0.295759 17.5759 0.210938 17.375 0.210938 17.1429V15.4286C0.210938 15.1964 0.295759 14.9955 0.465402 14.8259C0.635045 14.6562 0.835938 14.5714 1.06808 14.5714H19.9252C20.1574 14.5714 20.3583 14.6562 20.5279 14.8259C20.6975 14.9955 20.7824 15.1964 20.7824 15.4286ZM20.7824 8.57143V10.2857C20.7824 10.5179 20.6975 10.7187 20.5279 10.8884C20.3583 11.058 20.1574 11.1429 19.9252 11.1429H1.06808C0.835938 11.1429 0.635045 11.058 0.465402 10.8884C0.295759 10.7187 0.210938 10.5179 0.210938 10.2857V8.57143C0.210938 8.33929 0.295759 8.13839 0.465402 7.96875C0.635045 7.79911 0.835938 7.71428 1.06808 7.71428H19.9252C20.1574 7.71428 20.3583 7.79911 20.5279 7.96875C20.6975 8.13839 20.7824 8.33929 20.7824 8.57143ZM20.7824 1.71428V3.42857C20.7824 3.66071 20.6975 3.86161 20.5279 4.03125C20.3583 4.20089 20.1574 4.28571 19.9252 4.28571H1.06808C0.835938 4.28571 0.635045 4.20089 0.465402 4.03125C0.295759 3.86161 0.210938 3.66071 0.210938 3.42857V1.71428C0.210938 1.48214 0.295759 1.28125 0.465402 1.11161C0.635045 0.941964 0.835938 0.857142 1.06808 0.857142H19.9252C20.1574 0.857142 20.3583 0.941964 20.5279 1.11161C20.6975 1.28125 20.7824 1.48214 20.7824 1.71428Z" fill="black"/>
</svg>
