<svg width="26" height="27" viewBox="0 0 26 27" fill="none" xmlns="http://www.w3.org/2000/svg">
<path d="M25.2958 15.9643C25.2958 16.0201 25.2902 16.0592 25.279 16.0815C24.5647 19.0725 23.0692 21.5 20.7924 23.3638C18.5156 25.2165 15.8482 26.1429 12.7902 26.1429C11.1607 26.1429 9.58147 25.8359 8.05246 25.2221C6.5346 24.6083 5.17857 23.7321 3.98438 22.5937L1.82478 24.7533C1.61272 24.9654 1.36161 25.0714 1.07143 25.0714C0.78125 25.0714 0.530134 24.9654 0.31808 24.7533C0.106027 24.5413 0 24.2902 0 24V16.5C0 16.2098 0.106027 15.9587 0.31808 15.7467C0.530134 15.5346 0.78125 15.4286 1.07143 15.4286H8.57143C8.86161 15.4286 9.11272 15.5346 9.32478 15.7467C9.53683 15.9587 9.64286 16.2098 9.64286 16.5C9.64286 16.7902 9.53683 17.0413 9.32478 17.2533L7.03125 19.5469C7.82366 20.2835 8.7221 20.8527 9.72656 21.2545C10.731 21.6562 11.7746 21.8571 12.8571 21.8571C14.3527 21.8571 15.7478 21.4944 17.0424 20.769C18.3371 20.0435 19.375 19.0446 20.1563 17.7723C20.279 17.5826 20.5748 16.9297 21.0435 15.8136C21.1328 15.5569 21.3002 15.4286 21.5458 15.4286H24.76C24.9051 15.4286 25.0279 15.4844 25.1283 15.596C25.24 15.6964 25.2958 15.8192 25.2958 15.9643ZM25.7143 2.57143V10.0714C25.7143 10.3616 25.6083 10.6127 25.3962 10.8248C25.1842 11.0368 24.933 11.1429 24.6429 11.1429H17.1429C16.8527 11.1429 16.6016 11.0368 16.3895 10.8248C16.1775 10.6127 16.0714 10.3616 16.0714 10.0714C16.0714 9.78125 16.1775 9.53013 16.3895 9.31808L18.6998 7.00781C17.048 5.47879 15.1004 4.71428 12.8571 4.71428C11.3616 4.71428 9.96652 5.07701 8.67188 5.80245C7.37723 6.5279 6.33929 7.52679 5.55804 8.79911C5.43527 8.98884 5.13951 9.64174 4.67076 10.7578C4.58147 11.0145 4.41406 11.1429 4.16853 11.1429H0.837054C0.691964 11.1429 0.563616 11.0926 0.452009 10.9922C0.351563 10.8806 0.301339 10.7522 0.301339 10.6071V10.49C1.02679 7.49888 2.53348 5.07701 4.82143 3.22433C7.10938 1.36049 9.78795 0.42857 12.8571 0.42857C14.4866 0.42857 16.0714 0.74107 17.6116 1.36607C19.1518 1.97991 20.519 2.85045 21.7132 3.97768L23.8895 1.81808C24.1016 1.60603 24.3527 1.5 24.6429 1.5C24.933 1.5 25.1842 1.60603 25.3962 1.81808C25.6083 2.03013 25.7143 2.28125 25.7143 2.57143Z" fill="#EC80A0"/>
</svg>
